# xmcd
#
# Track frame offsets: 
#        150
#        17039
#        32929
#        44123
#        59741
#        75462
#        90488
#        109643
#        123947
#        135639
#        152093
#        165283
#        178081
#        192287
#        204788
#
# Disc length: 2938 seconds
#
# Revision: 0
# Processed by: cddbd v1.5.2PL0 Copyright (c) Steve Scherf et al.
# Submitted via: ExactAudioCopy v0.95b4
#
DISCID=c10b780f
DTITLE=Glen Campbell - Meet Glen Campbell (bonus tracks)
DYEAR=2008
DGENRE=Pop
TTITLE0=Sing
TTITLE1=Walls
TTITLE2=Angel Dream
TTITLE3=Times Like These
TTITLE4=These Days
TTITLE5=Sadly, Beautiful
TTITLE6=All I Want Is You
TTITLE7=Jesus
TTITLE8=Good Riddance (Time of Your Life)
TTITLE9=Grow Old With Me
TTITLE10=Gentle On My Mind (2008 Remix)
TTITLE11=By The Time I Get to Phoenix (2008 Remix)
TTITLE12=Wichita Lineman (2008 Remix)
TTITLE13=Galveston
TTITLE14=Rhinestone Cowboy (2008 Remix)
EXTD=
EXTT0=
EXTT1=
EXTT2=
EXTT3=
EXTT4=
EXTT5=
EXTT6=
EXTT7=
EXTT8=
EXTT9=
EXTT10=
EXTT11=
EXTT12=
EXTT13=
EXTT14=
PLAYORDER=
